<mxfile host="app.diagrams.net" modified="2020-07-24T12:31:44.351Z" agent="5.0 (Macintosh)" etag="lZKeC6_2WndSIx1xaNJr" version="13.5.2" type="github">
  <diagram name="Page-1" id="b5b7bab2-c9e2-2cf4-8b2a-24fd1a2a6d21">
    <mxGraphModel dx="2066" dy="1140" grid="0" gridSize="10" guides="1" tooltips="1" connect="1" arrows="1" fold="1" page="0" pageScale="1" pageWidth="827" pageHeight="1169" background="#ffffff" math="0" shadow="0">
      <root>
        <mxCell id="0" />
        <mxCell id="1" parent="0" />
        <mxCell id="6e0c8c40b5770093-72" value="" style="shape=folder;fontStyle=1;spacingTop=10;tabWidth=194;tabHeight=22;tabPosition=left;html=1;rounded=0;shadow=0;comic=0;labelBackgroundColor=none;strokeWidth=1;fillColor=none;fontFamily=Verdana;fontSize=10;align=center;" parent="1" vertex="1">
          <mxGeometry x="326.5" y="114.5" width="1001" height="940" as="geometry" />
        </mxCell>
        <mxCell id="6e0c8c40b5770093-6" value="" style="group" parent="1" vertex="1" connectable="0">
          <mxGeometry x="450" y="230" width="295" height="250" as="geometry" />
        </mxCell>
        <mxCell id="6e0c8c40b5770093-4" value="&lt;div&gt;&lt;br&gt;&lt;/div&gt;" style="shape=folder;fontStyle=1;spacingTop=10;tabWidth=110;tabHeight=20;tabPosition=left;html=1;rounded=0;shadow=0;comic=0;labelBackgroundColor=none;strokeWidth=1;fontFamily=Verdana;fontSize=10;align=center;" parent="6e0c8c40b5770093-6" vertex="1">
          <mxGeometry width="295" height="250.00000000000003" as="geometry" />
        </mxCell>
        <mxCell id="q5uD7bkVQZLTBHLvkaXJ-7" value="&lt;div&gt;app&amp;nbsp;module&lt;/div&gt;" style="text;html=1;strokeColor=none;fillColor=none;align=center;verticalAlign=middle;whiteSpace=wrap;rounded=0;" vertex="1" parent="6e0c8c40b5770093-6">
          <mxGeometry width="105" height="20" as="geometry" />
        </mxCell>
        <mxCell id="6e0c8c40b5770093-15" value="AppComponent" style="shape=folder;fontStyle=1;spacingTop=10;tabWidth=50;tabHeight=17;tabPosition=left;html=1;rounded=0;shadow=0;comic=0;labelBackgroundColor=none;strokeWidth=1;fontFamily=Verdana;fontSize=10;align=center;" parent="6e0c8c40b5770093-6" vertex="1">
          <mxGeometry x="91.5" y="90" width="112" height="70" as="geometry" />
        </mxCell>
        <mxCell id="6e0c8c40b5770093-18" value="" style="group" parent="1" vertex="1" connectable="0">
          <mxGeometry x="920" y="230" width="340" height="260" as="geometry" />
        </mxCell>
        <mxCell id="6e0c8c40b5770093-11" value="" style="shape=folder;fontStyle=1;spacingTop=10;tabWidth=123;tabHeight=24;tabPosition=left;html=1;rounded=0;shadow=0;comic=0;labelBackgroundColor=none;strokeWidth=1;fontFamily=Verdana;fontSize=10;align=center;" parent="6e0c8c40b5770093-18" vertex="1">
          <mxGeometry width="340" height="260" as="geometry" />
        </mxCell>
        <mxCell id="6e0c8c40b5770093-17" value="CommonsComponent" style="shape=folder;fontStyle=1;spacingTop=10;tabWidth=50;tabHeight=17;tabPosition=left;html=1;rounded=0;shadow=0;comic=0;labelBackgroundColor=none;strokeWidth=1;fontFamily=Verdana;fontSize=10;align=center;" parent="6e0c8c40b5770093-18" vertex="1">
          <mxGeometry x="102" y="92.5" width="136" height="75" as="geometry" />
        </mxCell>
        <mxCell id="q5uD7bkVQZLTBHLvkaXJ-6" value="commons module" style="text;html=1;strokeColor=none;fillColor=none;align=center;verticalAlign=middle;whiteSpace=wrap;rounded=0;" vertex="1" parent="6e0c8c40b5770093-18">
          <mxGeometry x="10" y="10" width="100" height="8" as="geometry" />
        </mxCell>
        <mxCell id="6e0c8c40b5770093-73" value="BV APP" style="text;html=1;align=center;verticalAlign=top;spacingTop=-4;fontSize=10;fontFamily=Verdana" parent="1" vertex="1">
          <mxGeometry x="326.5" y="117" width="194.5" height="20" as="geometry" />
        </mxCell>
        <mxCell id="q5uD7bkVQZLTBHLvkaXJ-8" value="" style="group" vertex="1" connectable="0" parent="1">
          <mxGeometry x="500" y="670" width="340" height="260" as="geometry" />
        </mxCell>
        <mxCell id="q5uD7bkVQZLTBHLvkaXJ-9" value="" style="shape=folder;fontStyle=1;spacingTop=10;tabWidth=123;tabHeight=24;tabPosition=left;html=1;rounded=0;shadow=0;comic=0;labelBackgroundColor=none;strokeWidth=1;fontFamily=Verdana;fontSize=10;align=center;" vertex="1" parent="q5uD7bkVQZLTBHLvkaXJ-8">
          <mxGeometry width="340" height="260" as="geometry" />
        </mxCell>
        <mxCell id="q5uD7bkVQZLTBHLvkaXJ-10" value="CasinoComponent" style="shape=folder;fontStyle=1;spacingTop=10;tabWidth=50;tabHeight=17;tabPosition=left;html=1;rounded=0;shadow=0;comic=0;labelBackgroundColor=none;strokeWidth=1;fontFamily=Verdana;fontSize=10;align=center;" vertex="1" parent="q5uD7bkVQZLTBHLvkaXJ-8">
          <mxGeometry x="114" y="95" width="112" height="70" as="geometry" />
        </mxCell>
        <mxCell id="q5uD7bkVQZLTBHLvkaXJ-11" value="casino module" style="text;html=1;strokeColor=none;fillColor=none;align=center;verticalAlign=middle;whiteSpace=wrap;rounded=0;" vertex="1" parent="q5uD7bkVQZLTBHLvkaXJ-8">
          <mxGeometry x="10" y="10" width="100" height="8" as="geometry" />
        </mxCell>
        <mxCell id="q5uD7bkVQZLTBHLvkaXJ-12" value="&lt;div&gt;depends on&lt;br&gt;&lt;/div&gt;" style="endArrow=classic;html=1;" edge="1" parent="1" source="6e0c8c40b5770093-4" target="q5uD7bkVQZLTBHLvkaXJ-9">
          <mxGeometry width="50" height="50" relative="1" as="geometry">
            <mxPoint x="800" y="610" as="sourcePoint" />
            <mxPoint x="850" y="560" as="targetPoint" />
          </mxGeometry>
        </mxCell>
        <mxCell id="q5uD7bkVQZLTBHLvkaXJ-13" value="&lt;div&gt;depends on&lt;/div&gt;" style="endArrow=classic;html=1;" edge="1" parent="1" source="q5uD7bkVQZLTBHLvkaXJ-9" target="6e0c8c40b5770093-11">
          <mxGeometry width="50" height="50" relative="1" as="geometry">
            <mxPoint x="800" y="610" as="sourcePoint" />
            <mxPoint x="850" y="560" as="targetPoint" />
          </mxGeometry>
        </mxCell>
      </root>
    </mxGraphModel>
  </diagram>
</mxfile>
